<svg version="1.1" id="Layer_1" xmlns="http://www.w3.org/2000/svg" xmlns:xlink="http://www.w3.org/1999/xlink" x="0px" y="0px"
	 width="100%" viewBox="0 0 128 128" enable-background="new 0 0 128 128" xml:space="preserve">
<path fill="#000000" opacity="1.000000" stroke="none" 
	d="
M56.563683,111.201523 
	C49.125755,111.428894 42.155460,111.701706 35.395504,109.266678 
	C22.717098,104.699768 14.823819,91.716911 16.783203,78.442940 
	C17.701412,72.222466 21.625668,68.705765 27.965170,68.682129 
	C42.611214,68.627510 57.257725,68.627029 71.903786,68.678650 
	C78.850700,68.703133 82.905792,72.734077 83.313416,79.787354 
	C84.215294,95.393173 75.250671,107.143150 59.927334,110.448112 
	C58.952354,110.658386 57.987114,110.913803 56.563683,111.201523 
M75.738495,87.213928 
	C77.776787,77.051003 76.419647,75.366890 66.160217,75.363205 
	C54.514324,75.359016 42.868408,75.350845 31.222549,75.371422 
	C24.948616,75.382507 22.566324,78.240456 23.596136,84.433266 
	C25.560658,96.247002 31.671297,102.284920 45.199810,104.242271 
	C57.823296,106.068672 72.173256,101.768845 75.738495,87.213928 
z"/>
<path fill="#000000" opacity="1.000000" stroke="none" 
	d="
M30.163372,33.606564 
	C34.587505,24.567694 41.568199,20.277475 51.206573,20.703175 
	C59.571926,21.072647 65.729729,25.198229 69.392990,32.710289 
	C73.599167,41.335663 71.271698,52.253014 64.179802,58.240772 
	C56.770992,64.496109 46.095509,65.214447 38.140846,59.992905 
	C29.747965,54.483704 26.577843,44.353054 30.163372,33.606564 
M36.074776,38.590580 
	C34.673225,45.253651 37.770695,52.020172 43.559399,54.940971 
	C49.210667,57.792431 56.687798,56.299717 60.787647,51.501568 
	C65.254951,46.273369 65.649864,39.069492 61.535683,33.585823 
	C58.466404,29.494879 54.189934,26.997013 49.082191,27.516352 
	C42.826740,28.152384 38.377228,31.722239 36.074776,38.590580 
z"/>
<path fill="#000000" opacity="1.000000" stroke="none" 
	d="
M104.939545,39.352715 
	C109.847076,49.517509 106.766525,58.739738 97.564789,62.404575 
	C89.384880,65.662445 80.341484,61.460129 77.405289,53.036793 
	C74.849541,45.704876 77.545074,38.522522 84.304382,34.653912 
	C91.377411,30.605747 98.550194,32.144714 104.939545,39.352715 
M90.185898,56.267906 
	C95.699966,56.503830 100.085594,53.173199 100.457283,48.467388 
	C100.762054,44.608822 97.209145,40.254757 93.154419,39.517780 
	C89.199097,38.798866 84.570457,42.156784 83.780243,46.693443 
	C82.975349,51.314362 85.387062,54.249077 90.185898,56.267906 
z"/>
<path fill="#000000" opacity="1.000000" stroke="none" 
	d="
M88.294579,72.875877 
	C87.775749,71.437927 86.954964,70.425827 88.027786,68.768112 
	C93.695564,68.768112 99.678642,68.489845 105.620514,68.864670 
	C109.669044,69.120056 112.880707,73.489166 113.292381,78.146530 
	C114.387558,90.536522 106.705681,101.311035 94.548447,104.081924 
	C90.888573,104.916092 87.145370,106.147705 83.038918,104.822823 
	C83.793266,100.420273 86.454376,98.471230 90.648254,97.660606 
	C99.835510,95.884811 105.134331,90.437630 106.422539,81.921135 
	C107.059074,77.712875 105.398460,75.609589 101.103989,75.404663 
	C98.443039,75.277687 95.772003,75.370605 93.105698,75.344452 
	C91.265335,75.326401 89.347816,75.443710 88.294579,72.875877 
z"/>
</svg>